<?xml version="1.0" encoding="utf-8"?>
<!DOCTYPE svg PUBLIC "-//W3C//DTD SVG 1.1//EN" "http://www.w3.org/Graphics/SVG/1.1/DTD/svg11.dtd">

<svg version="1.1" id="backspace-btn" xmlns="http://www.w3.org/2000/svg" xmlns:xlink="http://www.w3.org/1999/xlink" x="0px" y="0px" viewBox="0 0 27 27"
	 style="enable-background:new 0 0 27 27;" xml:space="preserve">
<style type="text/css">
	.st0{display:none;fill:#707070;}
	.st1{fill:#484848;}
</style>
<switch>
	<g>
		<rect class="st0" width="27" height="27"/>
		<g>
			<path class="st1" d="M22.7,5.5H8.9c-0.6,0-1.1,0.3-1.5,0.8l-4.9,7.2l4.9,7.2c0.4,0.4,0.8,0.8,1.5,0.8h13.7c1,0,1.8-0.8,1.8-1.8
				V7.3C24.5,6.3,23.7,5.5,22.7,5.5L22.7,5.5z M19.9,16.7l-1.3,1.2l-3.3-3.2L12,17.9l-1.3-1.2l3.3-3.2l-3.3-3.2L12,9.1l3.3,3.2
				l3.3-3.2l1.3,1.2l-3.3,3.2L19.9,16.7z M19.9,16.7"/>
		</g>
	</g>
</switch>
</svg>
