<?xml version="1.0" encoding="utf-8"?>
<!DOCTYPE svg PUBLIC "-//W3C//DTD SVG 1.1//EN" "http://www.w3.org/Graphics/SVG/1.1/DTD/svg11.dtd">

<svg version="1.1" id="number_9" xmlns="http://www.w3.org/2000/svg"
    xmlns:xlink="http://www.w3.org/1999/xlink" x="0px" y="0px" viewBox="0 0 27 27"
	 style="enable-background:new 0 0 27 27;" xml:space="preserve">
<style type="text/css">
	.st0{display:none;fill:#707070;}
</style>
<switch>
	<g>
		<rect y="0" class="st0" width="27" height="27"/>
		<g>
			<path d="M11.2,18.4L11.2,18.4c0.1,0.6,0.3,1.1,0.7,1.4c0.3,0.3,0.8,0.4,1.4,0.4c0.8,0,1.5-0.4,2-1.1c0.6-0.9,0.9-2.2,0.9-4l0-0.1
				c-0.4,0.6-0.9,1-1.5,1.2c-0.5,0.2-1.1,0.3-1.9,0.3c-1.7,0-3-0.6-4-1.8c-0.9-1.1-1.4-2.5-1.4-4.2c0-2.2,0.6-3.9,1.7-5.1
				c1.1-1.1,2.5-1.6,4.3-1.6c1.4,0,2.6,0.4,3.5,1.1c0.8,0.6,1.4,1.5,1.9,2.7c0.3,0.9,0.6,2,0.7,3.3c0.1,0.8,0.1,1.7,0.1,2.7
				c0,3.3-0.7,5.7-2,7.3c-1.1,1.3-2.6,2-4.4,2c-1.5,0-2.8-0.4-3.8-1.3c-1-0.8-1.6-2-1.7-3.4H11.2z M11.7,13.1c0.4,0.5,1,0.7,1.8,0.7
				c0.7,0,1.3-0.3,1.7-0.8c0.6-0.6,0.9-1.5,0.9-2.6c0-1.1-0.2-2-0.7-2.6c-0.5-0.6-1.1-0.9-2-0.9c-0.6,0-1.2,0.2-1.6,0.6
				c-0.6,0.6-0.9,1.5-0.9,2.7C10.9,11.5,11.1,12.5,11.7,13.1z"/>
		</g>
	</g>
</switch>
</svg>
