<?xml version="1.0" encoding="utf-8"?>
<!DOCTYPE svg PUBLIC "-//W3C//DTD SVG 1.1//EN" "http://www.w3.org/Graphics/SVG/1.1/DTD/svg11.dtd">
<svg version="1.1" id="number_3" xmlns="http://www.w3.org/2000/svg" xmlns:xlink="http://www.w3.org/1999/xlink" x="0px" y="0px" viewBox="0 0 27 27"
	 style="enable-background:new 0 0 27 27;" xml:space="preserve">
<style type="text/css">
	.st0{display:none;fill:#707070;}
</style>
<switch>
	<g>
		<rect y="0" class="st0" width="27" height="27"/>
		<g>
			<path d="M12.1,11.8h0.5c0.8,0,1.4-0.1,1.9-0.4c0.7-0.4,1.1-1.1,1.1-2.2c0-0.7-0.1-1.3-0.4-1.7c-0.4-0.6-1-0.8-1.8-0.8
				c-1,0-1.7,0.4-2.1,1.3C11.1,8.6,11,9.2,11,9.9H7.7c0-1.8,0.5-3.2,1.4-4.3c1-1.1,2.5-1.7,4.4-1.7c1.4,0,2.6,0.4,3.6,1.1
				c1.2,0.9,1.9,2.3,1.9,4.1c0,0.9-0.2,1.6-0.7,2.3c-0.4,0.6-0.9,1-1.4,1.2v0c0.6,0.2,1.1,0.5,1.5,1c0.7,0.8,1.1,2,1.1,3.4
				c0,1.7-0.6,3.1-1.7,4.2c-1.1,1.1-2.6,1.6-4.3,1.6c-1.5,0-2.7-0.3-3.7-0.9c-1.6-1-2.4-2.7-2.4-5.2h3.4c0,0.8,0.1,1.5,0.4,2
				c0.4,0.8,1.2,1.2,2.2,1.2c0.8,0,1.4-0.2,1.9-0.7c0.5-0.5,0.8-1.3,0.8-2.3c0-1.2-0.5-2-1.4-2.4c-0.6-0.3-1.4-0.4-2.6-0.4V11.8z"/>
		</g>
	</g>
</switch>
</svg>
