<?xml version="1.0" encoding="utf-8"?>
<!DOCTYPE svg PUBLIC "-//W3C//DTD SVG 1.1//EN" "http://www.w3.org/Graphics/SVG/1.1/DTD/svg11.dtd">

<svg version="1.1" id="number_5"
	 xmlns="http://www.w3.org/2000/svg" xmlns:xlink="http://www.w3.org/1999/xlink" x="0px" y="0px" viewBox="0 0 27 27"
	 style="enable-background:new 0 0 27 27;" xml:space="preserve">
<style type="text/css">
	.st0{display:none;fill:#707070;}
</style>
<switch>
	<g>
		<rect y="0" class="st0" width="27" height="27"/>
		<g>
			<path d="M11.1,11.2c0.4-0.3,0.8-0.6,1.2-0.7c0.5-0.2,1.2-0.3,2-0.3c1.4,0,2.5,0.5,3.5,1.4c1.2,1.1,1.8,2.6,1.8,4.5
				c0,1.8-0.4,3.3-1.2,4.5c-1.1,1.5-2.8,2.3-5.2,2.3c-1.5,0-2.9-0.4-3.9-1.3c-1.2-1-1.8-2.3-1.8-4.1h3.5c0,0.8,0.2,1.4,0.7,1.9
				c0.4,0.4,1,0.7,1.8,0.7c0.8,0,1.5-0.3,2-1c0.5-0.7,0.7-1.5,0.7-2.6c0-0.9-0.2-1.7-0.6-2.3c-0.5-0.7-1.2-1-2-1
				c-0.4,0-0.8,0.1-1.1,0.2c-0.5,0.2-0.9,0.6-1.2,1.1L8,14.2L9.2,4.1h9.7v3h-7.2L11.1,11.2z"/>
		</g>
	</g>
</switch>
</svg>
