<?xml version="1.0" encoding="utf-8"?>
<!DOCTYPE svg PUBLIC "-//W3C//DTD SVG 1.1//EN" "http://www.w3.org/Graphics/SVG/1.1/DTD/svg11.dtd">

<svg version="1.1" id="number_8" xmlns="http://www.w3.org/2000/svg" xmlns:xlink="http://www.w3.org/1999/xlink" x="0px" y="0px" viewBox="0 0 27 27"
	 style="enable-background:new 0 0 27 27;" xml:space="preserve">
<style type="text/css">
	.st0{display:none;fill:#707070;}
</style>
<switch>
	<g>
		<rect class="st0" width="27" height="27"/>
		<g>
			<path d="M18.3,21c-1.1,1.4-2.7,2.1-4.8,2.1c-2.1,0-3.7-0.6-4.8-1.9c-0.9-1-1.3-2.3-1.3-3.7c0-0.9,0.1-1.7,0.3-2.3
				c0.4-1.1,1.2-1.9,2.4-2.4c-0.7-0.4-1.3-0.9-1.6-1.5C8.1,10.7,7.9,9.9,7.9,9c0-1.6,0.5-2.8,1.6-3.8c1-0.9,2.3-1.3,3.9-1.3
				c1.8,0,3.1,0.5,4.2,1.5c1,0.9,1.4,2,1.4,3.4c0,0.9-0.2,1.7-0.5,2.3c-0.3,0.7-0.9,1.2-1.5,1.6c0.9,0.4,1.5,1,1.9,1.6
				c0.4,0.7,0.7,1.7,0.7,2.9C19.6,18.7,19.2,19.9,18.3,21z M15.5,15.3c-0.5-0.6-1.1-0.9-2-0.9c-0.7,0-1.3,0.2-1.7,0.7
				c-0.5,0.5-0.8,1.3-0.8,2.3c0,0.9,0.2,1.6,0.7,2.1c0.5,0.5,1.1,0.8,1.9,0.8c0.8,0,1.5-0.3,2-1c0.4-0.5,0.6-1.2,0.6-1.9
				C16.1,16.5,15.9,15.8,15.5,15.3z M15.2,11c0.4-0.5,0.6-1.1,0.6-1.9c0-0.8-0.2-1.3-0.6-1.8c-0.4-0.4-0.9-0.6-1.5-0.6
				c-0.8,0-1.4,0.2-1.8,0.6c-0.4,0.4-0.6,1-0.6,1.8c0,0.7,0.2,1.3,0.6,1.8c0.4,0.5,1,0.8,1.7,0.8S14.8,11.5,15.2,11z"/>
		</g>
	</g>
</switch>
</svg>
