<?xml version="1.0" encoding="utf-8"?>
<!DOCTYPE svg PUBLIC "-//W3C//DTD SVG 1.1//EN" "http://www.w3.org/Graphics/SVG/1.1/DTD/svg11.dtd">

<svg version="1.1" id="number_2"
	 xmlns="http://www.w3.org/2000/svg" xmlns:xlink="http://www.w3.org/1999/xlink" x="0px" y="0px" viewBox="0 0 27 27"
	 style="enable-background:new 0 0 27 27;" xml:space="preserve">
<style type="text/css">
	.st0{display:none;fill:#707070;}
</style>
<switch>
	<g>
		<rect class="st0" width="27" height="27"/>
		<g>
			<path d="M7.7,10.8c0-2.6,0.8-4.5,2.3-5.6c1-0.7,2.1-1,3.5-1c1.8,0,3.2,0.5,4.3,1.5c1.2,1.1,1.8,2.6,1.8,4.4
				c0,1.5-0.4,2.7-1.2,3.8c-0.5,0.7-1.3,1.4-2.4,2.3l-0.9,0.7c-1.1,0.8-1.8,1.4-2.1,1.7c-0.5,0.5-0.8,0.9-1,1.2h7.6v3.1H7.5
				c0.1-1.4,0.3-2.5,0.7-3.4c0.6-1.4,1.8-2.7,3.5-4.1l0.4-0.3c1.6-1.2,2.7-2.1,3.1-2.6c0.7-0.8,1-1.6,1-2.6c0-0.8-0.2-1.4-0.6-1.9
				c-0.5-0.6-1.1-0.9-1.9-0.9c-1.1,0-1.8,0.4-2.2,1.3c-0.2,0.5-0.3,1.3-0.4,2.3H7.7z"/>
		</g>
	</g>
</switch>
</svg>
