<?xml version="1.0" encoding="utf-8"?>
<!DOCTYPE svg PUBLIC "-//W3C//DTD SVG 1.1//EN" "http://www.w3.org/Graphics/SVG/1.1/DTD/svg11.dtd">
<svg version="1.1" id="레이어_1" xmlns="http://www.w3.org/2000/svg" xmlns:xlink="http://www.w3.org/1999/xlink" x="0px" y="0px" viewBox="0 0 27 27"
     style="enable-background:new 0 0 27 27;" xml:space="preserve">
<style type="text/css">
    .st0{display:none;fill:#707070;}
</style>
<switch>
    <g>
        <rect class="st0" width="27" height="27"/>
        <g>
            <path d="M8.9,6.2c1-1.5,2.5-2.3,4.6-2.3s3.6,0.8,4.6,2.3c1,1.5,1.5,4,1.5,7.3c0,3.3-0.5,5.7-1.5,7.3c-1,1.5-2.5,2.3-4.6,2.3
                s-3.6-0.8-4.6-2.3c-1-1.5-1.5-4-1.5-7.3C7.4,10.2,7.9,7.7,8.9,6.2z M11.5,18.7c0.4,1,1,1.5,2,1.5s1.7-0.5,2-1.5
                c0.4-1,0.6-2.7,0.6-5.2c0-2.5-0.2-4.3-0.6-5.3c-0.4-1-1.1-1.5-2-1.5s-1.7,0.5-2,1.5c-0.3,1-0.5,2.7-0.5,5.3
                C11,16,11.2,17.7,11.5,18.7z"/>
        </g>
    </g>
</switch>
</svg>
