<?xml version="1.0" encoding="utf-8"?>
<!DOCTYPE svg PUBLIC "-//W3C//DTD SVG 1.1//EN" "http://www.w3.org/Graphics/SVG/1.1/DTD/svg11.dtd">

<svg version="1.1" id="number_6" xmlns="http://www.w3.org/2000/svg" xmlns:xlink="http://www.w3.org/1999/xlink" x="0px" y="0px" viewBox="0 0 27 27"
	 style="enable-background:new 0 0 27 27;" xml:space="preserve">
<style type="text/css">
	.st0{display:none;fill:#707070;}
</style>
<switch>
	<g>
		<rect y="0" class="st0" width="27" height="27"/>
		<g>
			<path d="M15.8,8.7c-0.1-0.6-0.3-1-0.6-1.4c-0.3-0.4-0.8-0.6-1.5-0.6c-1,0-1.8,0.6-2.3,1.8c-0.4,0.9-0.6,2.2-0.6,3.7l0,0.1
				c0.3-0.5,0.7-0.8,1.1-1.1c0.6-0.3,1.3-0.5,2.2-0.5c1.7,0,3,0.6,4,1.8c0.9,1.1,1.3,2.4,1.3,3.9c0,2-0.5,3.6-1.6,4.9
				c-1.1,1.2-2.4,1.9-4.1,1.9c-2.5,0-4.2-1-5.3-2.9c-0.8-1.5-1.2-3.6-1.2-6.4c0-2.7,0.3-4.8,1-6.3c1-2.4,2.9-3.6,5.6-3.6
				c0.7,0,1.4,0.1,2,0.3c0.8,0.2,1.4,0.6,1.8,1.1c0.3,0.3,0.6,0.8,0.9,1.4C19,7.3,19.2,8,19.3,8.7H15.8z M15.3,14.2
				c-0.5-0.4-1-0.7-1.7-0.7c-0.8,0-1.4,0.2-1.8,0.7c-0.5,0.6-0.8,1.4-0.8,2.5c0,1,0.3,1.9,0.8,2.5c0.5,0.7,1.2,1,2,1
				c0.7,0,1.3-0.3,1.7-0.8c0.5-0.6,0.8-1.5,0.8-2.7C16.1,15.6,15.9,14.8,15.3,14.2z"/>
		</g>
	</g>
</switch>
</svg>
