<?xml version="1.0" encoding="utf-8"?>
<!DOCTYPE svg PUBLIC "-//W3C//DTD SVG 1.1//EN" "http://www.w3.org/Graphics/SVG/1.1/DTD/svg11.dtd">
<svg version="1.1" id="ok_btn" xmlns="http://www.w3.org/2000/svg" xmlns:xlink="http://www.w3.org/1999/xlink" x="0px" y="0px" viewBox="0 0 63 27"
	 style="enable-background:new 0 0 63 27;" xml:space="preserve">
<style type="text/css">
	.st0{display:none;fill:#707070;}
	.st1{fill:#FFFFFF;}
</style>
<switch>
	<g>
		<polygon class="st0" points="27,0 23.5,0 0,0 0,27 23.5,27 27,27 63,27 63,0 		"/>
		<g>
			<path class="st1" d="M14.5,10.6c0,1.8-1.5,3.1-3.5,3.1c-2,0-3.5-1.3-3.5-3.1c0-1.8,1.5-3,3.5-3C13,7.6,14.5,8.9,14.5,10.6z
				 M9.3,10.6c0,1,0.7,1.5,1.7,1.5s1.7-0.6,1.7-1.5c0-0.9-0.7-1.5-1.7-1.5S9.3,9.7,9.3,10.6z M11.3,14.5v1.2h4.9v-1.2H18v5.3H9.4
				v-5.3H11.3z M11.3,18.3h4.9v-1.2h-4.9V18.3z M18,7V14h-1.9V7H18z"/>
			<path class="st1" d="M26.2,14.4c-1.5,0.3-2.8,0.3-5.3,0.3h-1v-4.2h3.8V9.3H20V7.8h5.6v4.1h-3.8v1.3c1.8,0,3-0.1,4.3-0.3
				L26.2,14.4z M21.4,15.6h8.8V20h-1.8V17h-7V15.6z M30.3,7v8h-1.8v-1.9h-2.1v-1.5h2.1v-1.3h-2.1V8.8h2.1V7.1L30.3,7z"/>
			<path class="st1" d="M39.5,14.7c-2.6,0.5-5.5,0.5-7.6,0.5l-0.2-1.5c0.9,0,1.9,0,3,0v-1c-1.4-0.3-2.3-1.3-2.3-2.5
				c0-1.5,1.3-2.6,3.2-2.6c1.9,0,3.2,1.1,3.2,2.6c0,1.3-0.9,2.2-2.3,2.5v0.9c1-0.1,2-0.1,2.9-0.3L39.5,14.7z M35.1,18.2h7.2v1.5h-9
				V16h1.8V18.2z M35.5,11.4c0.9,0,1.5-0.4,1.5-1.2c0-0.8-0.6-1.2-1.5-1.2c-0.9,0-1.5,0.4-1.5,1.2C34,11,34.6,11.4,35.5,11.4z
				 M43.5,11.1v1.5h-1.6v4.3H40V7h1.8v4H43.5z"/>
			<path class="st1" d="M55.5,17v1.5H43.8V17h3v-2h-1.6v-4.3h7.2V9.3h-7.2V7.9h9v4.3H47v1.4h7.5v1.5h-1.8v2H55.5z M48.6,17h2.3v-2
				h-2.3V17z"/>
		</g>
	</g>
</switch>
</svg>
