<?xml version="1.0" encoding="utf-8"?>
<!DOCTYPE svg PUBLIC "-//W3C//DTD SVG 1.1//EN" "http://www.w3.org/Graphics/SVG/1.1/DTD/svg11.dtd">
<svg version="1.1" id="safe_icon"
	 xmlns="http://www.w3.org/2000/svg" xmlns:xlink="http://www.w3.org/1999/xlink" x="0px" y="0px" viewBox="0 0 33 33"
	 style="enable-background:new 0 0 33 33;" xml:space="preserve">
<style type="text/css">
	.st0{fill:#707070;}
	.st1{fill:#CDCDCD;stroke:#CDCDCD;stroke-width:0.25;stroke-miterlimit:10;}
</style>
<switch>
	<g>
		<path class="st0" d="M2,0c0,0-2,0-2,2.1v28.9c0,0,0,2.1,2,2.1h29c0,0,2,0,2-2.1V2.1c0,0,0-2.1-2-2.1H2z"/>
		<g>
			<path class="st1" d="M25.2,7.5l-8.5-3c-0.1,0-0.2,0-0.3,0l-8.5,3C7.6,7.6,7.5,7.8,7.5,8v6c0,7.8,1.2,10.6,8.8,14.4
				c0.1,0,0.1,0.1,0.2,0.1c0.1,0,0.2,0,0.2-0.1c7.6-3.8,8.8-6.7,8.8-14.4V8C25.5,7.8,25.4,7.6,25.2,7.5L25.2,7.5z M24.5,14
				c0,7.4-0.9,9.8-8,13.4c-7.1-3.6-8-6-8-13.4V8.4l8-2.8l8,2.8V14z M24.5,14"/>
			<path class="st1" d="M20,13.5V13c0-1.9-1.6-3.5-3.5-3.5c-1.9,0-3.5,1.6-3.5,3.5v0.5c-0.6,0-1,0.4-1,1v5c0,0.6,0.4,1,1,1h7
				c0.6,0,1-0.4,1-1v-5C21,14,20.6,13.5,20,13.5z M17.3,17.5v1c0,0.4-0.3,0.8-0.8,0.8c-0.4,0-0.7-0.3-0.7-0.8v-1
				c-0.4-0.3-0.8-0.7-0.8-1.3c0-0.8,0.7-1.5,1.5-1.5c0.8,0,1.5,0.7,1.5,1.5C18,16.8,17.7,17.3,17.3,17.5z M19,13.5h-5V13
				c0-1.4,1.1-2.5,2.5-2.5c1.4,0,2.5,1.1,2.5,2.5V13.5z"/>
		</g>
	</g>
</switch>
</svg>
