<?xml version="1.0" encoding="utf-8"?>
<!DOCTYPE svg PUBLIC "-//W3C//DTD SVG 1.1//EN" "http://www.w3.org/Graphics/SVG/1.1/DTD/svg11.dtd">
<svg version="1.1" id="title" xmlns="http://www.w3.org/2000/svg" xmlns:xlink="http://www.w3.org/1999/xlink" x="0px" y="0px" viewBox="0 0 220 39"
     style="enable-background:new 0 0 220 39;" xml:space="preserve">
<style type="text/css">
    .st0{fill:#101010;}
    .st1{fill-opacity:0.0;}
</style>
<switch>
    <g>
        <g>
            <path d="M35,23.1v1.2H23.5v-1.2h5v-2.5h-3.7V14h1.4v2.1h6V14h1.4v6.5h-3.7v2.5H35z M26.2,19.4h6v-2.1h-6V19.4z"/>
            <path d="M39.2,20.4c-1.9,0-3.4-1.3-3.4-3.2c0-1.8,1.5-3.2,3.4-3.2c1.9,0,3.4,1.3,3.4,3.2C42.6,19,41.1,20.4,39.2,20.4z
                 M39.2,19.1c1.1,0,2-0.8,2-1.9c0-1.1-0.9-1.9-2-1.9s-1.9,0.8-1.9,1.9C37.2,18.4,38.1,19.1,39.2,19.1z M39,24.4h7.1v1.2h-8.5v-4.1
                H39V24.4z M47.3,16.9v1.2h-1.8v4.3h-1.4v-9.3h1.4v3.8H47.3z"/>
            <path d="M54.6,14.4c0,3.8-1.2,7.1-5.8,9.4L48,22.7c2.2-1.1,3.6-2.4,4.4-4l-4.1,0.4l-0.2-1.2l4.7-0.3c0.2-0.6,0.3-1.3,0.4-2h-4.4
                v-1.2H54.6z M58.3,13.2v12.6h-1.4V13.2H58.3z"/>
            <path d="M65,21.5c0.4,0,0.8-0.1,1.1-0.1l0.1,1.1c-2,0.4-4.6,0.4-6.2,0.4l-0.2-1.2c0.3,0,0.8,0,1.2,0v-5.8h-1v-1.2H66v1.2H65V21.5
                z M62.4,21.6c0.4,0,0.9,0,1.3-0.1v-5.7h-1.3V21.6z M70.8,13.2v12.7h-1.4v-6.5h-1.4v5.9h-1.4V13.4h1.4v4.7h1.4v-5H70.8z"/>
            <path d="M83.7,23v1.2H72.2V23H83.7z M82.4,20.3h-8.8v-6h8.7v1.2h-7.2v3.7h7.3V20.3z"/>
        </g>
    </g>
</switch>
</svg>
